<?xml version="1.0" standalone="no"?>
<!DOCTYPE svg PUBLIC "-//W3C//DTD SVG 20010904//EN"
 "http://www.w3.org/TR/2001/REC-SVG-20010904/DTD/svg10.dtd">
<svg version="1.0" xmlns="http://www.w3.org/2000/svg"
 width="700.000000pt" height="700.000000pt" viewBox="0 0 700.000000 700.000000"
 preserveAspectRatio="xMidYMid meet">
<metadata>
Created by potrace 1.14, written by Peter Selinger 2001-2017
</metadata>
<g transform="translate(0.000000,700.000000) scale(0.100000,-0.100000)"
fill="#000000" stroke="none">
<path d="M0 5030 l0 -1970 1238 0 c1350 0 1305 -2 1416 57 36 19 158 134 416
389 390 385 404 397 528 423 73 15 1465 15 1548 0 128 -23 140 -34 534 -424
320 -317 373 -366 430 -393 36 -18 89 -36 119 -42 30 -5 214 -10 412 -10 l359
0 0 1970 0 1970 -3500 0 -3500 0 0 -1970z"/>
<path d="M3102 2600 c-29 -10 -69 -29 -90 -41 -20 -12 -199 -183 -397 -380
-229 -226 -375 -364 -402 -378 -104 -52 -80 -51 -1185 -51 l-1028 0 0 -875 0
-875 3500 0 3500 0 0 875 0 875 -585 0 c-394 0 -601 4 -637 11 -123 26 -148
47 -538 433 -330 328 -371 365 -430 392 l-65 29 -795 2 c-761 2 -797 2 -848
-17z"/>
</g>
</svg>
