<svg fill="none" height="4772" viewBox="0 0 9840 4772" width="9840" xmlns="http://www.w3.org/2000/svg"><path clip-rule="evenodd" d="m9838 2h-9836v4768h4980.06c5.83 0 11.43-2.32 15.56-6.44l49.94-49.95c4.87-4.87 11.49-7.61 18.38-7.61h76.12c6.89 0 13.51 2.74 18.38 7.61l49.94 49.94c4.13 4.13 9.73 6.45 15.56 6.45h4612.06zm2-2v4772h-4614.06c-6.36 0-12.47-2.53-16.97-7.03l-49.94-49.94c-4.5-4.5-10.61-7.03-16.97-7.03h-76.12c-6.36 0-12.47 2.53-16.97 7.03l-49.94 49.94c-4.5 4.5-10.61 7.03-16.97 7.03h-4982.06v-4772z" fill="#33cef9" fill-rule="evenodd"/></svg>