<svg fill="none" height="96" viewBox="0 0 96 96" width="96" xmlns="http://www.w3.org/2000/svg"><path d="m93.6906 44c1.4291 2.4752 1.4291 5.5248 0 8l-19.3812 33.5692c-1.4291 2.4752-4.0701 4-6.9282 4h-38.7624c-2.8581 0-5.4991-1.5248-6.9282-4l-19.3812-33.5692c-1.429062-2.4752-1.429061-5.5248 0-8l19.3812-33.5692c1.4291-2.47523 4.0701-4.00002 6.9282-4.00002h38.7624c2.8581 0 5.4991 1.52479 6.9282 4.00002z"/><path d="m18.9941 45.123c-.2968 0-.6015-.0292-.914-.0878-.3086-.0547-.586-.1407-.8321-.2579l.1758-.873c.2383.1133.4805.1953.7266.2461.25.0469.5312.0703.8437.0703.5547 0 .9922-.2109 1.3125-.6328.3243-.4258.4922-1.1094.5039-2.0508l-.0234-.0293c-.1562.2617-.375.4629-.6562.6035-.2813.1407-.5977.211-.9493.211-.5546 0-1.0332-.1153-1.4355-.3457-.4023-.2305-.7129-.5645-.9316-1.002-.2149-.4375-.3223-.9668-.3223-1.5879 0-.5937.1172-1.1191.3516-1.5762.2382-.457.5566-.8144.955-1.0722.4024-.2617.8477-.3926 1.336-.3926.5937 0 1.1054.125 1.5351.375.4297.2461.7598.6152.9903 1.1074.2343.4883.3515 1.0957.3515 1.8223v1.541c0 .8867-.125 1.6211-.375 2.2031-.25.5821-.6015 1.0157-1.0547 1.3008-.4492.2852-.9785.4277-1.5879.4277zm.1875-3.7089c.4258 0 .7793-.0918 1.0606-.2754.2851-.1836.4902-.418.6152-.7032v-.9023c0-.7539-.1445-1.3223-.4336-1.7051-.2851-.3828-.7031-.5742-1.2539-.5742-.2851 0-.5429.0918-.7734.2754-.2305.1797-.4141.4297-.5508.75-.1328.3203-.1992.6895-.1992 1.1074 0 .4102.0605.7676.1816 1.0723.125.3008.3028.5351.5332.7031.2305.168.5039.252.8203.252zm7.0079 3.7089c-.836 0-1.4981-.291-1.9864-.873s-.7324-1.416-.7324-2.502v-2.0214c0-1.086.2422-1.92.7266-2.502.4843-.5859 1.1445-.8789 1.9804-.8789.8399 0 1.5039.293 1.9922.8789.4883.582.7324 1.416.7324 2.502v2.0214c0 1.0899-.2421 1.9258-.7265 2.5079-.4844.5781-1.1465.8671-1.9863.8671zm0-.9023c.5117 0 .8984-.1875 1.1601-.5625.2656-.375.3984-.9336.3984-1.6758v-2.5019c0-.7383-.1347-1.293-.4042-1.6641-.2657-.375-.6543-.5625-1.1661-.5625-.5039 0-.8886.1875-1.1543.5625-.2656.3711-.3984.9258-.3984 1.6641v2.5019c0 .7383.1348 1.2969.4043 1.6758.2695.375.6562.5625 1.1602.5625zm6.8437.9023c-.8359 0-1.498-.291-1.9863-.873s-.7324-1.416-.7324-2.502v-2.0214c0-1.086.2421-1.92.7265-2.502.4844-.5859 1.1445-.8789 1.9805-.8789.8398 0 1.5039.293 1.9922.8789.4883.582.7324 1.416.7324 2.502v2.0214c0 1.0899-.2422 1.9258-.7266 2.5079-.4843.5781-1.1465.8671-1.9863.8671zm0-.9023c.5117 0 .8984-.1875 1.1602-.5625.2656-.375.3984-.9336.3984-1.6758v-2.5019c0-.7383-.1348-1.293-.4043-1.6641-.2656-.375-.6543-.5625-1.166-.5625-.5039 0-.8887.1875-1.1543.5625-.2656.3711-.3984.9258-.3984 1.6641v2.5019c0 .7383.1347 1.2969.4042 1.6758.2696.375.6563.5625 1.1602.5625zm-16.3242 16.7793v-.7383l1.3183-.164v-6.3926l-1.3418.0234v-.7207l2.4961-.539v7.6289l1.3125.164v.7383zm4.7109 0v-.7383l.9551-.164v-6.7207l-.9551-.1641v-.7441h6.3164v2.0507h-.9258l-.1289-1.1601h-3.1523v2.7773h3.1465v.9082h-3.1465v3.0879h3.3398l.1289-1.1777h.92v2.0449zm7.7461 0v-.791l2.7949-3.1055c.3321-.3711.5918-.6875.7793-.9492.1875-.2656.3184-.5059.3926-.7207s.1113-.4375.1113-.668c0-.4258-.1289-.7832-.3867-1.0722-.2578-.293-.6269-.4395-1.1074-.4395-.5 0-.8906.1504-1.1719.4512-.2773.3008-.416.7265-.416 1.2773h-1.1074l-.0117-.0351c-.0118-.4922.0918-.9336.3105-1.3243.2188-.3945.5352-.705.9492-.9316.418-.2305.9141-.3457 1.4883-.3457.5391 0 1.002.1035 1.3887.3105.3906.2032.6914.4825.9023.8379.211.3555.3164.7637.3164 1.2247 0 .3124-.0625.623-.1875.9316-.1211.3086-.3007.625-.539.9492-.2344.3242-.5176.666-.8496 1.0254l-2.2442 2.4434.0117.0293h3.0293l.0938-.9786h.9785v1.8809zm9.4922.123c-.8359 0-1.498-.291-1.9863-.873s-.7324-1.416-.7324-2.502v-2.0214c0-1.086.2421-1.92.7265-2.502.4844-.5859 1.1445-.8789 1.9805-.8789.8398 0 1.5039.293 1.9922.8789.4883.582.7324 1.416.7324 2.502v2.0214c0 1.0899-.2422 1.9258-.7266 2.5079-.4843.5781-1.1465.8671-1.9863.8671zm0-.9023c.5117 0 .8984-.1875 1.1602-.5625.2656-.375.3984-.9336.3984-1.6758v-2.5019c0-.7383-.1348-1.293-.4043-1.6641-.2656-.375-.6543-.5625-1.166-.5625-.5039 0-.8887.1875-1.1543.5625-.2656.3711-.3984.9258-.3984 1.6641v2.5019c0 .7383.1347 1.2969.4042 1.6758.2696.375.6563.5625 1.1602.5625zm3.9844.7793v-.791l2.7949-3.1055c.332-.3711.5918-.6875.7793-.9492.1875-.2656.3184-.5059.3926-.7207s.1113-.4375.1113-.668c0-.4258-.1289-.7832-.3867-1.0722-.2578-.293-.627-.4395-1.1074-.4395-.5 0-.8907.1504-1.1719.4512-.2774.3008-.416.7265-.416 1.2773h-1.1075l-.0117-.0351c-.0117-.4922.0918-.9336.3106-1.3243.2187-.3945.5351-.705.9492-.9316.418-.2305.9141-.3457 1.4883-.3457.539 0 1.0019.1035 1.3886.3105.3907.2032.6915.4825.9024.8379.2109.3555.3164.7637.3164 1.2247 0 .3124-.0625.623-.1875.9316-.1211.3086-.3008.625-.5391.9492-.2343.3242-.5175.666-.8496 1.0254l-2.2441 2.4434.0117.0293h3.0293l.0938-.9786h.9785v1.8809zm6.7734 0v-.7383l1.3184-.164v-6.3926l-1.3418.0234v-.7207l2.4961-.539v7.6289l1.3125.164v.7383z"/></svg>