<svg xmlns="http://www.w3.org/2000/svg" xmlns:xlink="http://www.w3.org/1999/xlink" width="1280" height="800" viewBox="0 0 1280 800"><defs><clipPath id="a"><rect width="332" height="703" fill="none"/></clipPath><clipPath id="b"><rect width="16" height="316" fill="none"/></clipPath><clipPath id="c"><rect width="317" height="41" fill="none"/></clipPath><clipPath id="d"><rect width="317" height="647" transform="translate(963 89)" fill="none"/></clipPath><clipPath id="e"><rect width="212" height="128" fill="none"/></clipPath><clipPath id="f"><rect width="16" height="703" fill="none"/></clipPath><clipPath id="g"><rect width="40" height="40" fill="none"/></clipPath><clipPath id="h"><rect width="952" height="160" fill="none"/></clipPath><clipPath id="i"><rect width="952" height="32" fill="none"/></clipPath><clipPath id="j"><rect width="96" height="32" fill="none"/></clipPath><clipPath id="k"><rect width="31.996" height="32" fill="none"/></clipPath><clipPath id="l"><rect width="296" height="704" fill="none"/></clipPath><clipPath id="m"><rect width="280" height="160" fill="none"/></clipPath><clipPath id="n"><path d="M9,4H5V0H4V4H0V5H4V9H5V5H9Z" fill="none"/></clipPath><clipPath id="r"><rect width="1280" height="57" fill="none"/></clipPath><clipPath id="s"><rect width="85" height="32" fill="none"/></clipPath><clipPath id="w"><path d="M7,0,4,3,1,0,0,1,4,5,8,1Z" fill="none"/></clipPath><clipPath id="x"><rect width="1280" height="40" fill="none"/></clipPath><clipPath id="z"><rect width="18.201" height="29.602" fill="none"/></clipPath><clipPath id="aa"><rect width="1280" height="800" fill="none"/></clipPath><filter id="ab" x="441" y="189" width="398" height="409.295" filterUnits="userSpaceOnUse"><feOffset input="SourceAlpha"/><feGaussianBlur stdDeviation="1" result="ac"/><feFlood flood-color="#222529" flood-opacity="0.239"/><feComposite operator="in" in2="ac"/><feComposite in="SourceGraphic"/></filter><clipPath id="ad"><rect width="16" height="16" fill="none"/></clipPath><clipPath id="ae"><path d="M6.9,13.8a6.9,6.9,0,1,1,6.9-6.9A6.908,6.908,0,0,1,6.9,13.8Zm-1-7.9v5h2v-5Zm0-3v2h2v-2Z" fill="none"/></clipPath><clipPath id="ag"><rect width="1280" height="800"/></clipPath></defs><g id="af" clip-path="url(#ag)"><rect width="1280" height="800" fill="#fdfdfd"/><rect width="1280" height="800" fill="#fdfdfd"/><g transform="translate(1264 97)" clip-path="url(#a)"><rect width="332" height="703" fill="#fdfdfd"/><g transform="translate(332 687) rotate(90)" clip-path="url(#b)"><path d="M0,0H1V316H0Z" transform="translate(15)" fill="#e4e9f0"/><path d="M0,0H1V316H0Z" fill="#e4e9f0"/><path d="M3,0V6.944L0,3.472Z" transform="translate(6 154.298)" fill="#98a7b8"/></g><g transform="translate(15 647)" clip-path="url(#c)"><g fill="#f9fafb" stroke="#e4e9f0" stroke-width="1"><rect width="317" height="41" stroke="none"/><rect x="0.5" y="0.5" width="316" height="40" fill="none"/></g><text transform="translate(17 24.114)" fill="#96a5b6" font-size="12" font-family="Roboto-Regular, Roboto, Arial, sans-serif"><tspan x="0" y="0">Please type here your first intent…</tspan></text></g><g transform="translate(-948 -89)" clip-path="url(#d)"><g transform="translate(1012 104)"><g clip-path="url(#e)"><g fill="#f0f3f6" stroke="#e4e9f0" stroke-width="1"><path d="M0,0H196a16,16,0,0,1,16,16v96a16,16,0,0,1-16,16H16A16,16,0,0,1,0,112V0A0,0,0,0,1,0,0Z" stroke="none"/><path d="M1,.5H196A15.5,15.5,0,0,1,211.5,16v96A15.5,15.5,0,0,1,196,127.5H16A15.5,15.5,0,0,1,.5,112V1A.5.5,0,0,1,1,.5Z" fill="none"/></g><text transform="translate(16 13)" fill="#444a52" font-size="12" font-family="Roboto-Regular, Roboto, Arial, sans-serif"><tspan x="0" y="13">Hi dialog architect, </tspan><tspan x="0" y="33"></tspan><tspan x="0" y="53" xml:space="preserve">  let’s test your latest NLU Domain </tspan><tspan x="0" y="73">Model. Type in your phrase into </tspan><tspan x="0" y="93">the input field below.</tspan></text></g></g></g><g clip-path="url(#f)"><path d="M0,0H1V703H0Z" transform="translate(15)" fill="#e4e9f0"/><path d="M0,0H1V703H0Z" fill="#e4e9f0"/><path d="M433,496.028v6.944l-3-3.472Z" transform="translate(-424 -148.517)" fill="#98a7b8"/></g><g transform="translate(15)" clip-path="url(#g)"><rect width="40" height="40" fill="none"/><g transform="translate(7.381 11.548)"><path d="M14.894,4.107A4.8,4.8,0,0,0,10.419,1H5.775A4.792,4.792,0,0,0,1,5.775V5.95a4.792,4.792,0,0,0,4.775,4.775h.52V13.16h.613A3.156,3.156,0,0,0,9.785,11.1a.574.574,0,0,1,.416-.361" transform="translate(-1 -1)" fill="none" stroke="#33383d" stroke-miterlimit="10" stroke-width="1"/><path d="M30.148,19.826h.514a4.792,4.792,0,0,0,4.781-4.775v-.17A4.792,4.792,0,0,0,30.662,10.1H26.045a4.786,4.786,0,0,0-4.775,4.781v.17a4.786,4.786,0,0,0,4.775,4.775h.1a.6.6,0,0,1,.547.377,3.156,3.156,0,0,0,2.877,2.062h.58" transform="translate(-10.182 -5.122)" fill="none" stroke="#33383d" stroke-miterlimit="10" stroke-width="1"/></g><g transform="translate(27.143 5)"><g fill="#fabb00" stroke="#fdfdfd" stroke-width="1"><circle cx="5" cy="5" r="5" stroke="none"/><circle cx="5" cy="5" r="5.5" fill="none"/></g><path d="M220,375a5,5,0,0,1,5-5v5Z" transform="translate(-220 -370)" fill="#33383d"/><path d="M325,470a5,5,0,0,1-5,5v-5Z" transform="translate(-315 -465)" fill="#33383d"/></g></g></g><g transform="translate(4)"><g transform="translate(308 160)"><g transform="translate(0 40)" clip-path="url(#h)"><g transform="translate(0 -40)"><g transform="translate(0 40)"><rect width="952" height="40" fill="#f8f8f8"/><rect width="952" height="1" transform="translate(0 39)" fill="#e4e9f0"/><text transform="translate(56 24.141)" fill="#444a52" font-size="12" font-family="Roboto-Regular, Roboto, Arial, sans-serif"><tspan x="0" y="0">Search for a car</tspan></text><path d="M0,12V0H12V12Z" transform="translate(14 14)" fill="none" stroke="#98a7b8" stroke-width="1"/></g><g transform="translate(0 80)"><rect width="952" height="40" fill="#fdfdfd"/><rect width="952" height="1" transform="translate(0 39)" fill="#e4e9f0"/><text transform="translate(56 24.141)" fill="#444a52" font-size="12" font-family="Roboto-Regular, Roboto, Arial, sans-serif"><tspan x="0" y="0">Filter car categories</tspan></text><path d="M0,12V0H12V12Z" transform="translate(14 14)" fill="none" stroke="#98a7b8" stroke-width="1"/></g></g><g transform="translate(0 40)"><g transform="translate(0 40)"><rect width="952" height="40" fill="#f8f8f8"/><rect width="952" height="1" transform="translate(0 39)" fill="#e4e9f0"/><text transform="translate(56 24.141)" fill="#444a52" font-size="12" font-family="Roboto-Regular, Roboto, Arial, sans-serif"><tspan x="0" y="0">Filter car results</tspan></text><path d="M0,12V0H12V12Z" transform="translate(14 14)" fill="none" stroke="#98a7b8" stroke-width="1"/></g><g transform="translate(0 80)"><rect width="952" height="40" fill="#fdfdfd"/><rect width="952" height="1" transform="translate(0 39)" fill="#e4e9f0"/><text transform="translate(56 24.141)" fill="#444a52" font-size="12" font-family="Roboto-Regular, Roboto, Arial, sans-serif"><tspan x="0" y="0">Add car add-ons</tspan></text><path d="M0,12V0H12V12Z" transform="translate(14 14)" fill="none" stroke="#98a7b8" stroke-width="1"/></g></g></g><rect width="952" height="1" transform="translate(0 39)" fill="#e4e9f0"/><g transform="translate(14)"><text transform="translate(42 24)" fill="#444a52" font-size="12" font-family="Roboto-Bold, Roboto, Arial, sans-serif" font-weight="700"><tspan x="0" y="0">Intent name</tspan></text><rect width="1" height="40" transform="translate(25)" fill="#e4e9f0"/><path d="M0,12V0H12V12Z" transform="translate(0 14)" fill="none" stroke="#98a7b8" stroke-width="1"/></g><rect width="952" height="1" transform="translate(0)" fill="#e4e9f0"/></g><g transform="translate(308 112)" clip-path="url(#i)"><g clip-path="url(#j)"><g fill="#2a60c8" stroke="#2455a3" stroke-miterlimit="10" stroke-width="1"><rect width="96" height="32" rx="2" stroke="none"/><rect x="0.5" y="0.5" width="95" height="31" rx="1.5" fill="none"/></g><text transform="translate(48 20)" fill="#fdfdfd" font-size="12" font-family="Roboto-Bold, Roboto, Arial, sans-serif" font-weight="700"><tspan x="-28.061" y="0">Add Intent</tspan></text></g><g transform="translate(928 4)"><rect width="24" height="24" fill="none"/><path d="M1083,163h2v-2h-2Zm-1.009-9a4,4,0,0,1,.515-2.249,1.89,1.89,0,0,1,1.6-.868,1.333,1.333,0,0,1,.524.055,1.621,1.621,0,0,1,.559.325,1.939,1.939,0,0,1,.445.628,2.262,2.262,0,0,1,.184.952,2.467,2.467,0,0,1-.114.8,2.2,2.2,0,0,1-.314.6,3.21,3.21,0,0,1-.455.492q-.253.224-.532.484a5.1,5.1,0,0,0-.6.642,3.17,3.17,0,0,0-.428.755,4.138,4.138,0,0,0-.253,1,6.493,6.493,0,0,0-.079,1.387h1.887l.113-1.136a5.48,5.48,0,0,1,.323-.81,3.318,3.318,0,0,1,.489-.624c.187-.186.39-.378.612-.577q.279-.261.559-.531a3.374,3.374,0,0,0,.5-.614,3.037,3.037,0,0,0,.349-.82,4.277,4.277,0,0,0,.131-1.126,4.107,4.107,0,0,0-.3-1.6,3.335,3.335,0,0,0-.812-1.182,3.565,3.565,0,0,0-1.2-.727,4.35,4.35,0,0,0-1.494-.251,4.457,4.457,0,0,0-1.738.326,3.755,3.755,0,0,0-1.328.922,5.1,5.1,0,0,0-.838,1.662A5.844,5.844,0,0,0,1080,154Z" transform="translate(-1072 -144)" fill="#98a7b8"/></g><g transform="translate(144)"><g fill="#dce1e5"><path d="M 30.97494697570801 31.5 L 1.021156907081604 31.5 C 0.8086668848991394 31.5 0.4999968707561493 31.09159088134766 0.4999968707561493 30.45161056518555 L 0.4999968707561493 1.548390030860901 C 0.4999968707561493 0.9084100127220154 0.8086668848991394 0.5 1.021156907081604 0.5 L 30.97494697570801 0.5 C 31.18743705749512 0.5 31.49609756469727 0.9084100127220154 31.49609756469727 1.548390030860901 L 31.49609756469727 30.45161056518555 C 31.49609756469727 31.09159088134766 31.18743705749512 31.5 30.97494697570801 31.5 Z" stroke="none"/><path d="M 1.135410308837891 1 C 1.077793121337891 1.0850830078125 0.9999961853027344 1.275407791137695 0.9999961853027344 1.548389434814453 L 0.9999961853027344 30.45161056518555 C 0.9999961853027344 30.7245922088623 1.077793121337891 30.9149169921875 1.135410308837891 31 L 30.86068344116211 31 C 30.91830062866211 30.9149169921875 30.99609756469727 30.7245922088623 30.99609756469727 30.45161056518555 L 30.99609756469727 1.548389434814453 C 30.99609756469727 1.275407791137695 30.91830062866211 1.0850830078125 30.86068344116211 1 L 1.135410308837891 1 M 1.021146774291992 0 L 30.97493743896484 0 C 31.53890609741211 0 31.99609756469727 0.6932392120361328 31.99609756469727 1.548389434814453 L 31.99609756469727 30.45161056518555 C 31.99609756469727 31.30676078796387 31.53890609741211 32 30.97493743896484 32 L 1.021146774291992 32 C 0.4571876525878906 32 -3.814697265625e-06 31.30676078796387 -3.814697265625e-06 30.45161056518555 L -3.814697265625e-06 1.548389434814453 C -3.814697265625e-06 0.6932392120361328 0.4571876525878906 0 1.021146774291992 0 Z" stroke="none" fill="#ced5d8"/></g><g transform="translate(8.5 9)"><path d="M12.759,1.146,12.052.44a1.5,1.5,0,0,0-2.119,0L9.2,1.173h0L0,10.372,2.828,13.2,11.7,4.328h0c.826-.826.938-.936,1.061-1.061A1.5,1.5,0,0,0,12.759,1.146Z" transform="translate(0.802 0)" fill="#444a52"/><path d="M0,0V2.811H2.812L.861.861Z" transform="translate(0 11.189)" fill="#444a52"/></g></g><g transform="translate(104)" clip-path="url(#k)"><g fill="#dce1e5"><path d="M 30.97494697570801 31.5 L 1.021156907081604 31.5 C 0.8086668848991394 31.5 0.4999968707561493 31.09159088134766 0.4999968707561493 30.45161056518555 L 0.4999968707561493 1.548390030860901 C 0.4999968707561493 0.9084100127220154 0.8086668848991394 0.5 1.021156907081604 0.5 L 30.97494697570801 0.5 C 31.18743705749512 0.5 31.49609756469727 0.9084100127220154 31.49609756469727 1.548390030860901 L 31.49609756469727 30.45161056518555 C 31.49609756469727 31.09159088134766 31.18743705749512 31.5 30.97494697570801 31.5 Z" stroke="none"/><path d="M 1.135410308837891 1 C 1.077793121337891 1.0850830078125 0.9999961853027344 1.275407791137695 0.9999961853027344 1.548389434814453 L 0.9999961853027344 30.45161056518555 C 0.9999961853027344 30.7245922088623 1.077793121337891 30.9149169921875 1.135410308837891 31 L 30.86068344116211 31 C 30.91830062866211 30.9149169921875 30.99609756469727 30.7245922088623 30.99609756469727 30.45161056518555 L 30.99609756469727 1.548389434814453 C 30.99609756469727 1.275407791137695 30.91830062866211 1.0850830078125 30.86068344116211 1 L 1.135410308837891 1 M 1.021146774291992 0 L 30.97493743896484 0 C 31.53890609741211 0 31.99609756469727 0.6932392120361328 31.99609756469727 1.548389434814453 L 31.99609756469727 30.45161056518555 C 31.99609756469727 31.30676078796387 31.53890609741211 32 30.97493743896484 32 L 1.021146774291992 32 C 0.4571876525878906 32 -3.814697265625e-06 31.30676078796387 -3.814697265625e-06 30.45161056518555 L -3.814697265625e-06 1.548389434814453 C -3.814697265625e-06 0.6932392120361328 0.4571876525878906 0 1.021146774291992 0 Z" stroke="none" fill="#ced5d8"/></g><g transform="translate(11 9)"><path d="M5443,1408v11h9v-11Zm3,9h-1v-7h1Zm2,0h-1v-7h1Zm2,0h-1v-7h1Z" transform="translate(-5442 -1404)" fill="#444a52"/><path d="M5452,1405h-3v-1h-3v1h-3a1,1,0,0,0,0,2h9a1,1,0,0,0,0-2Z" transform="translate(-5442 -1404)" fill="#444a52"/></g></g></g></g><g transform="translate(0 96)" clip-path="url(#l)"><rect width="296" height="703" transform="translate(0 1)" fill="#fff"/><rect width="280" height="39" fill="#2a60c8"/><g transform="translate(0 480)" clip-path="url(#m)"><g transform="translate(4 -256)"><g transform="translate(-4 256)"><rect width="280" height="39" fill="none"/><rect width="248" height="1" transform="translate(16 39)" fill="#e4e9f0"/><text transform="translate(49 24)" fill="#444a52" font-size="12" font-family="Roboto-Bold, Roboto, Arial, sans-serif" font-weight="700"><tspan x="0" y="0">Learning</tspan></text><path d="M5,0A5,5,0,0,0,1.465,8.536,4.97,4.97,0,0,1,2.809,11H7.192A4.961,4.961,0,0,1,8.535,8.536,5,5,0,0,0,5,0ZM3.587,6.414,2.525,7.475a3.5,3.5,0,0,1,0-4.95l1.061,1.06a2,2,0,0,0,0,2.83h0ZM7.072,12.5h0v1.429a2.071,2.071,0,0,1-4.141,0V12.5Z" transform="translate(27 12)" fill="#98a7b8" fill-rule="evenodd"/></g></g><g transform="translate(4 -216)"><g transform="translate(-4 256)"><rect width="280" height="39" fill="none"/><rect width="248" height="1" transform="translate(16 39)" fill="#e4e9f0"/><text transform="translate(48 24)" fill="#444a52" font-size="12" font-family="Roboto-Bold, Roboto, Arial, sans-serif" font-weight="700"><tspan x="0" y="0">Analytics</tspan></text><g transform="translate(24 12.5)"><g transform="translate(2 2)"><path d="M2.5,11.25A1.75,1.75,0,1,1,4.25,9.5,1.75,1.75,0,0,1,2.5,11.25Zm2.625-3.5A1.75,1.75,0,1,1,6.875,6,1.75,1.75,0,0,1,5.125,7.75ZM7.75,10.375A1.75,1.75,0,1,1,9.5,8.625,1.75,1.75,0,0,1,7.75,10.375Zm3.5-6.125A1.75,1.75,0,1,1,13,2.5,1.75,1.75,0,0,1,11.25,4.25Z" fill="#98a7b8"/><path d="M2.412,9.6,5.107,5.94,7.789,8.683l3.487-6.207" fill="none" stroke="#98a7b8" stroke-width="2" fill-rule="evenodd"/></g><path d="M1.5,1.5v13m0,0h13" fill="none" stroke="#98a7b8" stroke-linecap="square" stroke-width="1.5" fill-rule="evenodd"/></g></g></g><g transform="translate(4 -176)"><g transform="translate(-4 256)"><rect width="280" height="39" fill="none"/><rect width="248" height="1" transform="translate(16 39)" fill="#e4e9f0"/><text transform="translate(48 24)" fill="#444a52" font-size="12" font-family="Roboto-Bold, Roboto, Arial, sans-serif" font-weight="700"><tspan x="0" y="0">Settings</tspan></text><path d="M14,9.713l-1.054-.945,0-.005,0-.007h0l-.026-.029a4.447,4.447,0,0,0,0-1.456l.025-.029h0l0-.006h0l0-.005L14,6.287a1.01,1.01,0,0,0,.36-1.369L13.814,4a1.025,1.025,0,0,0-1.38-.356L11.1,4.091a4.9,4.9,0,0,0-1.273-.749L9.545,2c-.118-.644-.452-1-1.008-1H7.463c-.556,0-.889.356-1.008,1l-.28,1.342A4.92,4.92,0,0,0,4.9,4.091L3.566,3.643A1.025,1.025,0,0,0,2.186,4l-.543.919A1.01,1.01,0,0,0,2,6.287l1.054.945,0,.005h0l.005.006h0l.025.029a4.447,4.447,0,0,0,0,1.456l-.025.029h0l-.005.007,0,.005L2,9.713a1.01,1.01,0,0,0-.36,1.369L2.186,12a1.025,1.025,0,0,0,1.38.356L4.9,11.909a4.894,4.894,0,0,0,1.27.748L6.456,14c.119.644.452,1,1.008,1H8.538c.556,0,.89-.356,1.008-1l.281-1.343a4.882,4.882,0,0,0,1.27-.748l1.338.448A1.025,1.025,0,0,0,13.815,12l.543-.919A1.01,1.01,0,0,0,14,9.713ZM8,10.877A2.877,2.877,0,1,1,10.9,8,2.889,2.889,0,0,1,8,10.877Z" transform="translate(23.5 12)" fill="#98a7b8" fill-rule="evenodd"/></g></g><g transform="translate(4 -136)"><g transform="translate(-4 256)"><rect width="280" height="39" fill="none"/><rect width="248" height="1" transform="translate(16 39)" fill="#e4e9f0"/><text transform="translate(48 24)" fill="#444a52" font-size="12" font-family="Roboto-Bold, Roboto, Arial, sans-serif" font-weight="700"><tspan x="0" y="0">JSON</tspan></text><path d="M6.44,11.067,3.68,8,6.44,4.933,5.6,4,2,8l3.6,4Zm3.12,0L12.32,8,9.56,4.933,10.4,4,14,8l-3.6,4Z" transform="translate(24 12)" fill="#98a7b8"/></g></g></g><g transform="translate(0 440)"><rect width="280" height="39" fill="none"/><rect width="248" height="1" transform="translate(16 39)" fill="#e4e9f0"/><text transform="translate(49 24)" fill="#444a52" font-size="12" font-family="Roboto-Regular, Roboto, Arial, sans-serif"><tspan x="0" y="0">Add Entity Type</tspan></text><g transform="translate(251 15)"><path d="M9,4H5V0H4V4H0V5H4V9H5V5H9Z" fill="none"/><g clip-path="url(#n)"><g transform="translate(-7 -7)"><rect width="21.6" height="21.6" fill="rgba(0,0,0,0)"/><rect width="24" height="24" fill="#98a7b8"/></g></g></g></g><g transform="translate(0 280)" clip-path="url(#m)"><g transform="translate(0 -320)"><g transform="translate(0 320)"><rect width="280" height="39" fill="none"/><rect width="248" height="1" transform="translate(16 39)" fill="#e4e9f0"/><text transform="translate(48 24)" fill="#444a52" font-size="12" font-family="Roboto-Regular, Roboto, Arial, sans-serif"><tspan x="0" y="0">Car model</tspan></text></g></g><g transform="translate(0 -280)"><g transform="translate(0 320)"><rect width="280" height="39" fill="none"/><rect width="248" height="1" transform="translate(16 39)" fill="#e4e9f0"/><text transform="translate(48 24)" fill="#444a52" font-size="12" font-family="Roboto-Regular, Roboto, Arial, sans-serif"><tspan x="0" y="0">Car make</tspan></text></g></g><g transform="translate(0 -240)"><g transform="translate(0 320)"><rect width="280" height="39" fill="none"/><rect width="248" height="1" transform="translate(16 39)" fill="#e4e9f0"/><text transform="translate(48 24)" fill="#444a52" font-size="12" font-family="Roboto-Regular, Roboto, Arial, sans-serif"><tspan x="0" y="0">Car colour</tspan></text></g></g><g transform="translate(0 -200)"><g transform="translate(0 320)"><rect width="280" height="39" fill="none"/><rect width="248" height="1" transform="translate(16 39)" fill="#e4e9f0"/><text transform="translate(48 24)" fill="#444a52" font-size="12" font-family="Roboto-Regular, Roboto, Arial, sans-serif"><tspan x="0" y="0">Car category</tspan></text></g></g></g><g transform="translate(0 240)"><rect width="280" height="39" fill="none"/><rect width="248" height="1" transform="translate(16 39)" fill="#e4e9f0"/><text transform="translate(48 24)" fill="#444a52" font-size="12" font-family="Roboto-Bold, Roboto, Arial, sans-serif" font-weight="700"><tspan x="0" y="0">Entity Type</tspan></text><g transform="translate(250 13.481)"><rect width="12" height="12" transform="translate(0)" fill="none"/><path d="M7,0,4,3,1,0,0,1,4,5,8,1Z" transform="translate(10 9) rotate(180)" fill="#98a7b8" fill-rule="evenodd"/></g><path d="M4,1A1,1,0,0,1,5,2V4A1,1,0,0,1,4,5H2A1,1,0,0,1,1,4V2A1,1,0,0,1,2,1ZM9,1a1,1,0,0,1,1,1V4A1,1,0,0,1,9,5H7A1,1,0,0,1,6,4V2A1,1,0,0,1,7,1Zm5,0a1,1,0,0,1,1,1V4a1,1,0,0,1-1,1H12a1,1,0,0,1-1-1V2a1,1,0,0,1,1-1ZM4,6A1,1,0,0,1,5,7V9a1,1,0,0,1-1,1H2A1,1,0,0,1,1,9V7A1,1,0,0,1,2,6ZM9,6a1,1,0,0,1,1,1V9a1,1,0,0,1-1,1H7A1,1,0,0,1,6,9V7A1,1,0,0,1,7,6Zm5,0a1,1,0,0,1,1,1V9a1,1,0,0,1-1,1H12a1,1,0,0,1-1-1V7a1,1,0,0,1,1-1ZM4,11a1,1,0,0,1,1,1v2a1,1,0,0,1-1,1H2a1,1,0,0,1-1-1V12a1,1,0,0,1,1-1Zm5,0a1,1,0,0,1,1,1v2a1,1,0,0,1-1,1H7a1,1,0,0,1-1-1V12a1,1,0,0,1,1-1Zm5,0a1,1,0,0,1,1,1v2a1,1,0,0,1-1,1H12a1,1,0,0,1-1-1V12a1,1,0,0,1,1-1Z" transform="translate(24 12)" fill="#98a7b8" fill-rule="evenodd"/></g><g transform="translate(0 200)"><rect width="280" height="39" fill="none"/><rect width="248" height="1" transform="translate(16 39)" fill="#e4e9f0"/><text transform="translate(49 24)" fill="#444a52" font-size="12" font-family="Roboto-Regular, Roboto, Arial, sans-serif"><tspan x="0" y="0">Add intent</tspan></text><g transform="translate(251 15)"><path d="M9,4H5V0H4V4H0V5H4V9H5V5H9Z" fill="none"/><g clip-path="url(#n)"><g transform="translate(-7 -7)"><rect width="21.6" height="21.6" fill="rgba(0,0,0,0)"/><rect width="24" height="24" fill="#98a7b8"/></g></g></g></g><g transform="translate(0 40)" clip-path="url(#m)"><g transform="translate(0 -40)"><g transform="translate(0 40)"><rect width="280" height="39" fill="none"/><rect width="248" height="1" transform="translate(16 39)" fill="#e4e9f0"/><text transform="translate(48 24)" fill="#444a52" font-size="12" font-family="Roboto-Regular, Roboto, Arial, sans-serif"><tspan x="0" y="0">Search for a car</tspan></text></g></g><g transform="translate(0 40)"><rect width="280" height="39" fill="none"/><rect width="248" height="1" transform="translate(16 39)" fill="#e4e9f0"/><text transform="translate(48 24)" fill="#444a52" font-size="12" font-family="Roboto-Regular, Roboto, Arial, sans-serif"><tspan x="0" y="0">Filter car categories</tspan></text></g><g transform="translate(0 40)"><g transform="translate(0 40)"><rect width="280" height="39" fill="none"/><rect width="248" height="1" transform="translate(16 39)" fill="#e4e9f0"/><text transform="translate(48 24)" fill="#444a52" font-size="12" font-family="Roboto-Regular, Roboto, Arial, sans-serif"><tspan x="0" y="0">Filter car results</tspan></text></g></g><g transform="translate(0 80)"><g transform="translate(0 40)"><rect width="280" height="39" fill="none"/><rect width="248" height="1" transform="translate(16 39)" fill="#e4e9f0"/><text transform="translate(48 24)" fill="#444a52" font-size="12" font-family="Roboto-Regular, Roboto, Arial, sans-serif"><tspan x="0" y="0">Add car add-ons</tspan></text></g></g></g><rect width="280" height="39" fill="none"/><rect width="248" height="1" transform="translate(16 39)" fill="#e4e9f0"/><text transform="translate(48 24)" fill="#fdfdfd" font-size="12" font-family="Roboto-Bold, Roboto, Arial, sans-serif" font-weight="700"><tspan x="0" y="0">Intents</tspan></text><g transform="translate(262 26) rotate(180)"><rect width="12" height="12" transform="translate(0)" fill="none"/><path d="M7,0,4,3,1,0,0,1,4,5,8,1Z" transform="translate(2 4)" fill="#fdfdfd" fill-rule="evenodd"/></g><path d="M9,15h2v1H5V15H7V10H3L1,8.5,3,7H7V5H2V2H7V1A1,1,0,1,1,9,1V2h4l2,1.5L13,5H9V7h5v3H9Z" transform="translate(24 12)" fill="#fdfdfd" fill-rule="evenodd"/><g transform="translate(280 1)"><path d="M0,0H1V703H0Z" transform="translate(15)" fill="#e4e9f0"/><path d="M0,0H1V703H0Z" fill="#e4e9f0"/><path d="M433,496.028v6.944l-3-3.472Z" transform="translate(-424 -148.517)" fill="#98a7b8"/></g></g><g transform="translate(0 40)" clip-path="url(#r)"><rect width="1280" height="1" transform="translate(0 56)" fill="#e4e9f0"/><path d="M0,0H1280V56H0Z" fill="#fdfdfd"/><text transform="translate(704 32)" fill="#77828f" font-size="11" font-family="Roboto-Regular, Roboto, Arial, sans-serif"><tspan x="-152.974" y="0">Model saved 08/08/19, 2:48pm</tspan></text><g transform="translate(146 18)"><text transform="translate(0 17)" fill="#96a5b6" font-size="18" font-family="Roboto-Light, Roboto, Arial, sans-serif" font-weight="300"><tspan x="0" y="0">Car Hire</tspan></text><text transform="translate(-130 17)" fill="#96a5b6" font-size="18" font-family="Roboto-Light, Roboto, Arial, sans-serif" font-weight="300"><tspan x="0" y="0">NLU Domain</tspan></text><text transform="translate(95 17)" fill="#444a52" font-size="18" font-family="Roboto-Light, Roboto, Arial, sans-serif" font-weight="300"><tspan x="0" y="0">Intents</tspan></text><path d="M7,11,2,6,7,1,6,0,0,6l6,6Z" transform="translate(83 17) rotate(180)" fill="#98a7b8" fill-rule="evenodd"/><path d="M7,11,2,6,7,1,6,0,0,6l6,6Z" transform="translate(-12 17) rotate(180)" fill="#98a7b8" fill-rule="evenodd"/></g><g transform="translate(900 12)" opacity="0.5" clip-path="url(#s)"><g fill="#e4e9f0" stroke="#d5dce0" stroke-miterlimit="10" stroke-width="1"><rect width="85" height="32" rx="2" stroke="none"/><rect x="0.5" y="0.5" width="84" height="31" rx="1.5" fill="none"/></g><text transform="translate(42.5 20)" fill="#444a52" font-size="12" font-family="Roboto-Bold, Roboto, Arial, sans-serif" font-weight="700"><tspan x="-13.137" y="0">Save</tspan></text></g><g transform="translate(993 12)" opacity="0.5" clip-path="url(#s)"><g fill="#e4e9f0" stroke="#d5dce0" stroke-miterlimit="10" stroke-width="1"><rect width="85" height="32" rx="2" stroke="none"/><rect x="0.5" y="0.5" width="84" height="31" rx="1.5" fill="none"/></g><text transform="translate(42.5 20)" fill="#444a52" font-size="12" font-family="Roboto-Bold, Roboto, Arial, sans-serif" font-weight="700"><tspan x="-13.79" y="0">Train</tspan></text></g><g transform="translate(1086 12)" opacity="0.5" clip-path="url(#s)"><g fill="#e4e9f0" stroke="#d5dce0" stroke-miterlimit="10" stroke-width="1"><rect width="85" height="32" rx="2" stroke="none"/><rect x="0.5" y="0.5" width="84" height="31" rx="1.5" fill="none"/></g><text transform="translate(42.5 20)" fill="#444a52" font-size="12" font-family="Roboto-Bold, Roboto, Arial, sans-serif" font-weight="700"><tspan x="-12.067" y="0">Test</tspan></text></g><g transform="translate(1179 12)" opacity="0.5" clip-path="url(#s)"><g fill="#e4e9f0" stroke="#d5dce0" stroke-miterlimit="10" stroke-width="1"><rect width="85" height="32" rx="2" stroke="none"/><rect x="0.5" y="0.5" width="84" height="31" rx="1.5" fill="none"/></g><text transform="translate(42.5 20)" fill="#444a52" font-size="12" font-family="Roboto-Bold, Roboto, Arial, sans-serif" font-weight="700"><tspan x="-20.229" y="0">Publish</tspan></text></g><g transform="translate(712 8)"><rect width="180" height="40" fill="rgba(0,0,0,0)"/><g transform="translate(0 4)"><g fill="#f9fafb" stroke="#dae1e8" stroke-miterlimit="10" stroke-width="1"><rect width="180" height="32" rx="2" stroke="none"/><rect x="0.5" y="0.5" width="179" height="31" rx="1.5" fill="none"/></g><g transform="translate(12 9)"><text transform="translate(0 11)" fill="#444a52" font-size="12" font-family="Roboto-Regular, Roboto, Arial, sans-serif"><tspan x="0" y="0">Model actions</tspan></text></g></g><g transform="translate(152 8)"><rect width="24" height="24" fill="rgba(0,0,0,0)"/><path d="M7,0,4,3,1,0,0,1,4,5,8,1Z" transform="translate(8 10)" fill="none"/><g transform="translate(8 10)" clip-path="url(#w)"><g transform="translate(-8 -10)"><rect width="21.6" height="21.6" fill="rgba(0,0,0,0)"/><rect width="24" height="24" fill="#444a52"/></g></g></g></g></g><g clip-path="url(#x)"><g clip-path="url(#x)"><rect width="1280" height="40" fill="#33383d"/></g><text transform="translate(1264 24)" fill="#96a5b6" font-size="12" font-family="Roboto-Regular, Roboto, Arial, sans-serif"><tspan x="-37.412" y="0">Logout</tspan></text><g transform="translate(159.008)"><rect width="25" height="40" transform="translate(50.992)" fill="none"/><text transform="translate(50.992 13)" fill="#96a5b6" font-size="12" font-family="Roboto-Regular, Roboto, Arial, sans-serif"><tspan x="1.139" y="13">BOT</tspan></text></g><g transform="translate(157.008)"><rect width="24" height="40" transform="translate(4.992)" fill="none"/><text transform="translate(5 13)" fill="#fdfdfd" font-size="12" font-family="Roboto-Bold, Roboto, Arial, sans-serif" font-weight="700"><tspan x="0.636" y="13">NLU</tspan></text></g><g transform="translate(156.008)"><rect width="74" height="40" transform="translate(-92.008)" fill="none"/><text transform="translate(-92 13)" fill="#96a5b6" font-size="12" font-family="Roboto-Regular, Roboto, Arial, sans-serif"><tspan x="0.584" y="13">Dialog Engine</tspan></text></g><rect width="24" height="3" transform="translate(162.008)" fill="#ff4f1f"/><g transform="translate(14.038 4.398)" clip-path="url(#z)"><path d="M2229.15,156.4a3.089,3.089,0,1,0,3.089,3.089,3.09,3.09,0,0,0-3.089-3.089m0,1.677a1.412,1.412,0,1,1-1.412,1.412,1.413,1.413,0,0,1,1.412-1.412" transform="translate(-2214.038 -156.398)" fill="#ff4f1f"/><path d="M2227,164h-7.7a5.175,5.175,0,0,0-5.24,4.554,5,5,0,0,0,4.981,5.446h7.613a5.175,5.175,0,0,0,5.24-4.554A5,5,0,0,0,2226.91,164m-.161,2a3,3,0,0,1,2.952,3.544,3.12,3.12,0,0,1-3.126,2.456h-7.2a3.12,3.12,0,0,1-3.126-2.456A3,3,0,0,1,2219.2,166Z" transform="translate(-2214.038 -156.398)" fill="#ff4f1f"/><path d="M2227,176h-3.153a5.175,5.175,0,0,0-5.239,4.552,5,5,0,0,0,4.98,5.448h3.143a5.176,5.176,0,0,0,5.24-4.549,5,5,0,0,0-4.979-5.451m-.069,2a3,3,0,0,1,2.952,3.546,3.123,3.123,0,0,1-3.127,2.454h-2.916a3.123,3.123,0,0,1-3.127-2.454,3,3,0,0,1,2.952-3.546Z" transform="translate(-2214.038 -156.398)" fill="#ff4f1f"/></g></g><g clip-path="url(#aa)"><path d="M0,0H1280V800H0Z" fill="#222529" opacity="0.797"/></g><g transform="translate(-1692 24)"><g transform="matrix(1, 0, 0, 1, 1692, -24)" filter="url(#ab)"><g transform="translate(444 192)" fill="#fdfdfd" stroke="#dae1e8" stroke-miterlimit="10" stroke-width="1"><rect width="392" height="403.295" stroke="none"/><rect x="0.5" y="0.5" width="391" height="402.295" fill="none"/></g></g><g transform="translate(2384 495.295)"><g fill="#86a1d5" stroke="#859fcf" stroke-miterlimit="10" stroke-width="1"><rect width="96" height="32" rx="2" stroke="none"/><rect x="0.5" y="0.5" width="95" height="31" rx="1.5" fill="none"/></g><text transform="translate(48 20)" fill="#f0f0f0" font-size="12" font-family="Roboto-Bold, Roboto, Arial, sans-serif" font-weight="700"><tspan x="-13.137" y="0">Save</tspan></text></g><g transform="translate(2184 495.295)"><g fill="#e4e9f0" stroke="#d5dce0" stroke-miterlimit="10" stroke-width="1"><rect width="96" height="32" rx="2" stroke="none"/><rect x="0.5" y="0.5" width="95" height="31" rx="1.5" fill="none"/></g><text transform="translate(0 9)" fill="#444a52" font-size="12" font-family="Roboto-Bold, Roboto, Arial, sans-serif" font-weight="700"><tspan x="29.534" y="13">Cancel</tspan></text></g><path d="M4,5,1,8,0,7,3,4,0,1,1,0,4,3,7,0,8,1,5,4,8,7,7,8Z" transform="translate(2504 184)" fill="#98a7b8"/><g transform="translate(2184.5 261)"><g transform="translate(0 19)"><rect width="303.5" height="40" fill="rgba(0,0,0,0)"/><g transform="translate(0 4)"><g fill="#f9fafb" stroke="#dae1e8" stroke-miterlimit="10" stroke-width="1"><rect width="295.5" height="32" rx="2" stroke="none"/><rect x="0.5" y="0.5" width="294.5" height="31" rx="1.5" fill="none"/></g><text transform="translate(12 20)" fill="#9baab8" font-size="12" font-family="Roboto-Regular, Roboto, Arial, sans-serif"><tspan x="0" y="0">eg. OrderPizza</tspan></text></g></g><text transform="translate(0 11)" fill="#444a52" font-size="12" font-family="Roboto-Bold, Roboto, Arial, sans-serif" font-weight="700"><tspan x="0" y="0">Intent name</tspan></text><g transform="translate(279.5 -1)" clip-path="url(#ad)"><rect width="16" height="16" fill="none"/><g transform="translate(1 1)" clip-path="url(#ae)"><g transform="translate(-5.1 -5.1)"><rect width="21.6" height="21.6" fill="rgba(0,0,0,0)"/><rect width="24" height="24" fill="#2a60c8"/></g></g></g></g><text transform="translate(2184 209.531)" fill="#444a52" font-size="24" font-family="Roboto-Light, Roboto, Arial, sans-serif" font-weight="300"><tspan x="0" y="25">Add intent</tspan></text></g></g></svg>